{"title":"Contact *1997* [BluRay][1080p][ENG, POL]","uid":6016952,"size":11276980135,"categoryP":"video","categoryS":"hd___movies","magnet":"?xt=urn:btih:ac03b36571ad542d7aa63ab2bfad15404c9721f2&amp;dn=Contact+%2A1997%2A+%5BBluRay%5D%5B1080p%5D%5BENG%2C+POL%5D&amp;tr=udp%3A%2F%2Ftracker.openbittorrent.com%3A80&amp;tr=udp%3A%2F%2Fopen.demonii.com%3A1337&amp;tr=udp%3A%2F%2Ftracker.coppersurfer.tk%3A6969&amp;tr=udp%3A%2F%2Fexodus.desync.com%3A6969","seeders":0,"leechers":4,"uploader":"albedo040","files":1,"time":1291663644,"description":"Contact *1997* [BluRay][1080p][ENG, POL]\n\nGeneral information:\nCountry: USA\nRelease Date: 11 July 1997\nGenre: Drama, Mystery, Sci-Fi, Thriller\nDirector: Robert Zemeckis\nScreenplay: James V. Hart, Michael Goldenberg, Carl Sagan (novel), Carl Sagan (story) and Ann Druyan (story)\nOriginal Music by Alan Silvestri\nCinematography by Don Burgess\nDuration: 2h 29mn\nLanguage: English, Polish\nSubtitles: English, Polish\nRating: 7.8/10 - 6267 votes\n\nCast:\nJena Malone ...  Young Ellie \nDavid Morse ...  Ted Arroway \nJodie Foster ...  Eleanor Arroway \nGeoffrey Blake ...  Fisher \nWilliam Fichtner ...  Kent \nSami Chester ...  Vernon (as SaMi Chester) \nTimothy McNeil ...  Davio \nLaura Elena Surillo ...  Cantina Woman \nMatthew McConaughey ...  Palmer Joss \nTom Skerritt ...  David Drumlin \nHenry Strozier ...  Minister \nMichael Chaban ...  Hadden Suit \nMax Martini ...  Willie (as Maximilian Martini) \nLarry King ...  Himself \nThomas Garner ...  Ian Broderick \n\nPlot:\nDr. Ellie Arroway, after years of searching, finds conclusive radio proof of intelligent aliens, who send plans for a mysterious machine.\n\nSpecifications:\nGeneral\nFormat                           : Matroska\nOverall bit rate                 : 10.0 Mbps\nEncoded date                     : UTC 2010-12-06 13:14:08\nWriting library                  : libebml v1.0.0 + libmatroska v1.0.0\n\nVideo\nFormat                           : AVC\nFormat/Info                      : Advanced Video Codec\nFormat profile                   : &lt;a class=&quot;__cf_email__&quot; href=&quot;/cdn-cgi/l/email-protection&quot; data-cfemail=&quot;7139181619313d455f40&quot;&gt;[email&amp;#160;protected]&lt;/a&gt;&lt;script cf-hash='f9e31' type=&quot;text/javascript&quot;&gt;\n/* &lt;![CDATA[ */!function(){try{var t=&quot;currentScript&quot;in document?document.currentScript:function(){for(var t=document.getElementsByTagName(&quot;script&quot;),e=t.length;e--;)if(t[e].getAttribute(&quot;cf-hash&quot;))return t[e]}();if(t&amp;&amp;t.previousSibling){var e,r,n,i,c=t.previousSibling,a=c.getAttribute(&quot;data-cfemail&quot;);if(a){for(e=&quot;&quot;,r=parseInt(a.substr(0,2),16),n=2;a.length-n;n+=2)i=parseInt(a.substr(n,2),16)^r,e+=String.fromCharCode(i);e=document.createTextNode(e),c.parentNode.replaceChild(e,c)}}}catch(u){}}();/* ]]&gt; */&lt;/script&gt;\nFormat settings, CABAC           : Yes\nFormat settings, ReFrames        : 5 frames\nMuxing mode                      : Container profile=&lt;a class=&quot;__cf_email__&quot; href=&quot;/cdn-cgi/l/email-protection&quot; data-cfemail=&quot;f9ac979297968e97b9cdd7c8&quot;&gt;[email&amp;#160;protected]&lt;/a&gt;&lt;script cf-hash='f9e31' type=&quot;text/javascript&quot;&gt;\n/* &lt;![CDATA[ */!function(){try{var t=&quot;currentScript&quot;in document?document.currentScript:function(){for(var t=document.getElementsByTagName(&quot;script&quot;),e=t.length;e--;)if(t[e].getAttribute(&quot;cf-hash&quot;))return t[e]}();if(t&amp;&amp;t.previousSibling){var e,r,n,i,c=t.previousSibling,a=c.getAttribute(&quot;data-cfemail&quot;);if(a){for(e=&quot;&quot;,r=parseInt(a.substr(0,2),16),n=2;a.length-n;n+=2)i=parseInt(a.substr(n,2),16)^r,e+=String.fromCharCode(i);e=document.createTextNode(e),c.parentNode.replaceChild(e,c)}}}catch(u){}}();/* ]]&gt; */&lt;/script&gt;\nCodec ID                         : V_MPEG4/ISO/AVC\nBit rate                         : 8 153 Kbps\nWidth                            : 1 920 pixels\nHeight                           : 800 pixels\nDisplay aspect ratio             : 2.40:1\nFrame rate                       : 23.976 fps\n\nAudio 1\nFormat                           : DTS\nFormat/Info                      : Digital Theater Systems\nCodec ID                         : A_DTS\nBit rate mode                    : Constant\nBit rate                         : 1 510 Kbps\nChannel(s)                       : 6 channels\nChannel positions                : Front: L C R, Side: L R, LFE\nSampling rate                    : 48.0 KHz\nBit depth                        : 24 bits\nStream size                      : 1.58 GiB (15%)\nTitle                            : English\n\nAudio 2\nFormat                           : AC-3\nFormat/Info                      : Audio Coding 3\nMode extension                   : CM (complete main)\nCodec ID                         : A_AC3\nBit rate mode                    : Constant\nBit rate                         : 384 Kbps\nChannel(s)                       : 2 channels\nChannel positions                : Front: L R\nSampling rate                    : 48.0 KHz\nStream size                      : 412 MiB (4%)\nTitle                            : Polish\nLanguage                         : Polish\n\nText 1\nFormat                           : UTF-8\nCodec ID                         : S_TEXT/UTF8\nCodec ID/Info                    : UTF-8 Plain Text\nTitle                            : English\n\nText 2\nFormat                           : UTF-8\nCodec ID                         : S_TEXT/UTF8\nCodec ID/Info                    : UTF-8 Plain Text\nTitle                            : Polish\nLanguage                         : Polish\n","torrent":{"xt":"urn:btih:ac03b36571ad542d7aa63ab2bfad15404c9721f2","amp;dn":"Contact+%2A1997%2A+%5BBluRay%5D%5B1080p%5D%5BENG%2C+POL%5D","amp;tr":["udp%3A%2F%2Ftracker.openbittorrent.com%3A80","udp%3A%2F%2Fopen.demonii.com%3A1337","udp%3A%2F%2Ftracker.coppersurfer.tk%3A6969","udp%3A%2F%2Fexodus.desync.com%3A6969"],"infoHash":"ac03b36571ad542d7aa63ab2bfad15404c9721f2","infoHashBuffer":{"type":"Buffer","data":[172,3,179,101,113,173,84,45,122,166,58,178,191,173,21,64,76,151,33,242]},"announce":[],"urlList":[]}}